PathFileType	4	(X/Y/Z) shrug_2kg_3.trc																										
DataRate	CameraRate	NumFrames	NumMarkers	Units	OrigDataRate	OrigDataStartFrame	OrigNumFrames																					
100	100	24	9	mm	100	487	556																					
Frame#	Time	gu			centelbow			EpL			centpxt8			centijc7			ij			ts			aa			ai		
		X1	Y1	Z1	X2	Y2	Z2	X3	Y3	Z3	X4	Y4	Z4	X5	Y5	Z5	X6	Y6	Z6	X7	Y7	Z7	X8	Y8	Z8	X9	Y9	Z9  
486	4.86	-100.245	-12.705	161.911	-143.069	-255.22	180.277	-127.232	-251.839	208.155	-46.816	-153.158	-8.669	-46.816	31.938	-8.669	0	0	0	-137.842	33.773	45.452	-122.938	26.562	163.565	-164.241	-76.614	47.308
487	4.87	-100.041	-12.516	162.04	-142.766	-255.048	180.401	-126.936	-251.66	208.282	-46.816	-153.158	-8.669	-46.816	31.938	-8.669	0	0	0	-137.744	33.835	45.5	-122.83	26.657	163.613	-164.118	-76.558	47.384
488	4.88	-99.915	-12.335	162.051	-142.513	-254.885	180.465	-126.685	-251.483	208.345	-46.816	-153.158	-8.669	-46.816	31.938	-8.669	0	0	0	-137.832	33.776	45.546	-122.899	26.648	163.66	-164.179	-76.622	47.477
489	4.89	-99.843	-12.287	161.881	-142.331	-254.85	180.385	-126.498	-251.431	208.261	-46.816	-153.158	-8.669	-46.816	31.938	-8.669	0	0	0	-138	33.655	45.453	-123.024	26.564	163.564	-164.323	-76.748	47.425
490	4.9	-99.711	-12.438	161.62	-142.159	-255.002	180.204	-126.316	-251.574	208.073	-46.816	-153.158	-8.669	-46.816	31.938	-8.669	0	0	0	-138.092	33.657	45.231	-123.063	26.584	163.337	-164.371	-76.756	47.225
491	4.91	-99.514	-12.695	161.519	-141.966	-255.255	180.14	-126.12	-251.823	208.007	-46.816	-153.158	-8.669	-46.816	31.938	-8.669	0	0	0	-138.097	33.803	45.033	-123.035	26.743	163.135	-164.302	-76.628	47.037
492	4.92	-99.336	-12.903	161.784	-141.766	-255.467	180.406	-125.928	-252.032	208.277	-46.816	-153.158	-8.669	-46.816	31.938	-8.669	0	0	0	-138.091	33.896	45.036	-123.039	26.854	163.14	-164.215	-76.554	47.043
493	4.93	-99.326	-13.035	162.301	-141.682	-255.612	180.919	-125.859	-252.169	208.798	-46.816	-153.158	-8.669	-46.816	31.938	-8.669	0	0	0	-138.183	33.842	45.291	-123.175	26.817	163.403	-164.249	-76.622	47.297
494	4.94	-99.53	-13.058	162.708	-141.758	-255.656	181.334	-125.945	-252.203	209.216	-46.816	-153.158	-8.669	-46.816	31.938	-8.669	0	0	0	-138.393	33.82	45.615	-123.415	26.806	163.73	-164.408	-76.656	47.617
495	4.95	-99.776	-12.894	162.794	-141.817	-255.524	181.434	-125.998	-252.059	209.311	-46.816	-153.158	-8.669	-46.816	31.938	-8.669	0	0	0	-138.598	33.938	45.749	-123.594	26.933	163.861	-164.557	-76.55	47.756
496	4.96	-99.868	-12.686	162.674	-141.7	-255.352	181.323	-125.868	-251.876	209.191	-46.816	-153.158	-8.669	-46.816	31.938	-8.669	0	0	0	-138.707	33.996	45.629	-123.634	26.997	163.733	-164.625	-76.502	47.652
497	4.97	-99.754	-12.704	162.544	-141.426	-255.397	181.194	-125.581	-251.914	209.054	-46.816	-153.158	-8.669	-46.816	31.938	-8.669	0	0	0	-138.713	33.813	45.444	-123.568	26.805	163.538	-164.62	-76.687	47.472
498	4.98	-99.595	-12.936	162.45	-141.175	-255.645	181.106	-125.317	-252.157	208.959	-46.816	-153.158	-8.669	-46.816	31.938	-8.669	0	0	0	-138.625	33.531	45.443	-123.436	26.5	163.531	-164.535	-76.969	47.46
499	4.99	-99.63	-13.161	162.322	-141.146	-255.879	181.004	-125.271	-252.388	208.847	-46.816	-153.158	-8.669	-46.816	31.938	-8.669	0	0	0	-138.519	33.395	45.658	-123.31	26.349	163.742	-164.421	-77.107	47.665
500	5	-99.815	-13.21	162.115	-141.224	-255.943	180.838	-125.329	-252.445	208.669	-46.816	-153.158	-8.669	-46.816	31.938	-8.669	0	0	0	-138.523	33.46	45.862	-123.288	26.419	163.943	-164.389	-77.051	47.874
501	5.01	-99.838	-12.996	161.87	-141.046	-255.76	180.632	-125.132	-252.249	208.45	-46.816	-153.158	-8.669	-46.816	31.938	-8.669	0	0	0	-138.64	33.601	45.84	-123.348	26.565	163.914	-164.444	-76.924	47.861
502	5.02	-99.57	-12.658	161.652	-140.538	-255.46	180.443	-124.609	-251.935	208.25	-46.816	-153.158	-8.669	-46.816	31.938	-8.669	0	0	0	-138.704	33.677	45.582	-123.324	26.637	163.645	-164.444	-76.862	47.609
503	5.03	-99.201	-12.497	161.476	-139.995	-255.326	180.295	-124.053	-251.789	208.093	-46.816	-153.158	-8.669	-46.816	31.938	-8.669	0	0	0	-138.59	33.657	45.287	-123.123	26.616	163.337	-164.273	-76.896	47.324
504	5.04	-98.97	-12.563	161.302	-139.65	-255.408	180.159	-123.694	-251.863	207.948	-46.816	-153.158	-8.669	-46.816	31.938	-8.669	0	0	0	-138.388	33.624	45.147	-122.87	26.6	163.192	-164.017	-76.941	47.204
505	5.05	-99.009	-12.633	161.108	-139.552	-255.499	180.001	-123.583	-251.943	207.782	-46.816	-153.158	-8.669	-46.816	31.938	-8.669	0	0	0	-138.348	33.681	45.155	-122.812	26.68	163.199	-163.907	-76.9	47.226
506	5.06	-99.284	-12.603	160.97	-139.654	-255.497	179.873	-123.677	-251.931	207.647	-46.816	-153.158	-8.669	-46.816	31.938	-8.669	0	0	0	-138.568	33.823	45.233	-123.022	26.833	163.276	-164.04	-76.778	47.304
507	5.07	-99.537	-12.589	161.068	-139.739	-255.511	179.957	-123.76	-251.937	207.729	-46.816	-153.158	-8.669	-46.816	31.938	-8.669	0	0	0	-138.824	33.908	45.387	-123.258	26.922	163.428	-164.208	-76.713	47.454
508	5.08	-99.522	-12.663	161.515	-139.565	-255.613	180.392	-123.592	-252.029	208.167	-46.816	-153.158	-8.669	-46.816	31.938	-8.669	0	0	0	-138.865	33.784	45.56	-123.265	26.81	163.597	-164.182	-76.852	47.636
509	5.09	-99.299	-12.772	162.059	-139.176	-255.75	180.922	-123.211	-252.155	208.7	-46.816	-153.158	-8.669	-46.816	31.938	-8.669	0	0	0	-138.743	33.466	45.619	-123.103	26.509	163.652	-164.015	-77.18	47.712
